<svg width="512" height="512" viewBox="0 0 512 512" xmlns="http://www.w3.org/2000/svg" role="img" aria-label="Rightsly"><rect width="512" height="512" rx="112" fill="#14201C"/><path transform="translate(109.822 409.600) scale(0.206174 -0.206174)" d="M80 0V1490H713Q891 1490 1021.0 1426.5Q1151 1363 1221.5 1246.5Q1292 1130 1292 970Q1292 831 1232.5 725.5Q1173 620 1065 556L1338 0H905L682 466H496V0ZM496 788H682Q776 788 831.0 838.0Q886 888 886 970Q886 1052 831.0 1102.0Q776 1152 682 1152H496Z" fill="#1D9E75"/><rect x="126.32" y="102.40" width="85.31" height="306.98" rx="4.27" fill="#C9A24B"/></svg>