<svg width="512" height="512" viewBox="0 0 512 512" xmlns="http://www.w3.org/2000/svg" role="img" aria-label="Rightsli mark">
  <rect width="512" height="512" rx="112" fill="#14201C"/>
  <rect x="182" y="128" width="26" height="256" rx="4" fill="#C9A24B"/>
  <path transform="translate(208.00 372.00) scale(0.16602 -0.16602)" d="M124 0V1490H705Q869 1490 988.5 1432.0Q1108 1374 1173.0 1267.0Q1238 1160 1238 1014Q1238 862 1163.0 753.0Q1088 644 955 590L1266 0H975L695 542Q692 542 688 542H388V0ZM388 760H692Q824 760 901.0 828.5Q978 897 978 1014Q978 1130 900.5 1198.0Q823 1266 690 1266H388Z" fill="#1D9E75"/>
</svg>
