<svg width="336" height="160" viewBox="0 0 336 160" xmlns="http://www.w3.org/2000/svg" role="img" aria-label="Rightsli">
  
  <rect x="40" y="44" width="14" height="80" rx="3" fill="#F4F1E9"/>
  <path transform="translate(78.00 108.00) scale(0.03125 -0.03125)" d="M124 0V1490H705Q869 1490 988.5 1432.0Q1108 1374 1173.0 1267.0Q1238 1160 1238 1014Q1238 862 1163.0 753.0Q1088 644 955 590L1266 0H975L695 542Q692 542 688 542H388V0ZM388 760H692Q824 760 901.0 828.5Q978 897 978 1014Q978 1130 900.5 1198.0Q823 1266 690 1266H388Z" fill="#F4F1E9"/>
  <path transform="translate(119.22 108.00) scale(0.03125 -0.03125)" d="M112 0V1056H364V0ZM238 1213Q173 1213 130.0 1254.5Q87 1296 87 1357Q87 1418 130.0 1459.0Q173 1500 238 1500Q302 1500 345.0 1459.0Q388 1418 388 1357Q388 1296 345.0 1254.5Q302 1213 238 1213Z" fill="#F4F1E9"/>
  <path transform="translate(134.09 108.00) scale(0.03125 -0.03125)" d="M591 -432Q382 -432 259.0 -342.0Q136 -252 115 -98H362Q380 -166 441.0 -201.5Q502 -237 591 -237Q709 -237 774.5 -173.0Q840 -109 840 12V173H839Q788 80 706.0 36.5Q624 -7 520 -7Q382 -7 279.0 62.0Q176 131 119.5 252.5Q63 374 63 533Q63 693 120.0 816.0Q177 939 280.0 1008.0Q383 1077 518 1077Q621 1077 704.5 1033.5Q788 990 840 899H841V1056H1090V27Q1090 -136 1025.0 -237.5Q960 -339 847.0 -385.5Q734 -432 591 -432ZM579 201Q703 201 777.5 292.5Q852 384 852 536Q852 688 777.5 779.5Q703 871 579 871Q462 871 390.0 784.0Q318 697 318 536Q318 374 390.0 287.5Q462 201 579 201Z" fill="#F4F1E9"/>
  <path transform="translate(171.66 108.00) scale(0.03125 -0.03125)" d="M364 597V0H112V1490H364V901Q474 1077 684 1077Q850 1077 955.5 970.0Q1061 863 1061 660V0H808V620Q808 736 752.0 796.0Q696 856 595 856Q496 856 430.0 794.0Q364 732 364 597Z" fill="#F4F1E9"/>
  <path transform="translate(208.31 108.00) scale(0.03125 -0.03125)" d="M669 1056V853H454V303Q454 246 477.0 224.5Q500 203 561 203H669V0H517Q356 0 278.5 65.0Q201 130 201 266V853H17V1056H201V1344H454V1056Z" fill="#F4F1E9"/>
  <path transform="translate(230.69 108.00) scale(0.03125 -0.03125)" d="M526 -25Q333 -25 203.5 65.5Q74 156 62 326H311Q319 249 373.0 206.5Q427 164 522 164Q613 164 665.5 200.0Q718 236 718 292Q718 340 679.0 369.0Q640 398 574 412L394 449Q86 513 86 754Q86 900 202.0 989.5Q318 1079 511 1079Q703 1079 823.5 984.5Q944 890 948 727H711Q709 798 656.0 844.0Q603 890 517 890Q434 890 386.0 853.0Q338 816 338 762Q338 715 375.0 685.5Q412 656 478 641L668 602Q825 569 899.5 498.0Q974 427 974 311Q974 208 916.5 132.5Q859 57 758.0 16.0Q657 -25 526 -25Z" fill="#F4F1E9"/>
  <path transform="translate(263.00 108.00) scale(0.03125 -0.03125)" d="M364 1490V0H112V1490Z" fill="#F4F1E9"/>
  <path transform="translate(277.88 108.00) scale(0.03125 -0.03125)" d="M112 0V1056H364V0ZM238 1213Q173 1213 130.0 1254.5Q87 1296 87 1357Q87 1418 130.0 1459.0Q173 1500 238 1500Q302 1500 345.0 1459.0Q388 1418 388 1357Q388 1296 345.0 1254.5Q302 1213 238 1213Z" fill="#F4F1E9"/>
  
</svg>
