<svg width="456" height="200" viewBox="0 0 456 200" xmlns="http://www.w3.org/2000/svg" role="img" aria-label="Rightsli">
  
  <rect x="40" y="44" width="14" height="80" rx="3" fill="#C9A24B"/>
  <path transform="translate(78.00 108.00) scale(0.03125 -0.03125)" d="M124 0V1490H705Q869 1490 988.5 1432.0Q1108 1374 1173.0 1267.0Q1238 1160 1238 1014Q1238 862 1163.0 753.0Q1088 644 955 590L1266 0H975L695 542Q692 542 688 542H388V0ZM388 760H692Q824 760 901.0 828.5Q978 897 978 1014Q978 1130 900.5 1198.0Q823 1266 690 1266H388Z" fill="#14201C"/>
  <path transform="translate(119.22 108.00) scale(0.03125 -0.03125)" d="M112 0V1056H364V0ZM238 1213Q173 1213 130.0 1254.5Q87 1296 87 1357Q87 1418 130.0 1459.0Q173 1500 238 1500Q302 1500 345.0 1459.0Q388 1418 388 1357Q388 1296 345.0 1254.5Q302 1213 238 1213Z" fill="#14201C"/>
  <path transform="translate(134.09 108.00) scale(0.03125 -0.03125)" d="M591 -432Q382 -432 259.0 -342.0Q136 -252 115 -98H362Q380 -166 441.0 -201.5Q502 -237 591 -237Q709 -237 774.5 -173.0Q840 -109 840 12V173H839Q788 80 706.0 36.5Q624 -7 520 -7Q382 -7 279.0 62.0Q176 131 119.5 252.5Q63 374 63 533Q63 693 120.0 816.0Q177 939 280.0 1008.0Q383 1077 518 1077Q621 1077 704.5 1033.5Q788 990 840 899H841V1056H1090V27Q1090 -136 1025.0 -237.5Q960 -339 847.0 -385.5Q734 -432 591 -432ZM579 201Q703 201 777.5 292.5Q852 384 852 536Q852 688 777.5 779.5Q703 871 579 871Q462 871 390.0 784.0Q318 697 318 536Q318 374 390.0 287.5Q462 201 579 201Z" fill="#14201C"/>
  <path transform="translate(171.66 108.00) scale(0.03125 -0.03125)" d="M364 597V0H112V1490H364V901Q474 1077 684 1077Q850 1077 955.5 970.0Q1061 863 1061 660V0H808V620Q808 736 752.0 796.0Q696 856 595 856Q496 856 430.0 794.0Q364 732 364 597Z" fill="#14201C"/>
  <path transform="translate(208.31 108.00) scale(0.03125 -0.03125)" d="M669 1056V853H454V303Q454 246 477.0 224.5Q500 203 561 203H669V0H517Q356 0 278.5 65.0Q201 130 201 266V853H17V1056H201V1344H454V1056Z" fill="#14201C"/>
  <path transform="translate(230.69 108.00) scale(0.03125 -0.03125)" d="M526 -25Q333 -25 203.5 65.5Q74 156 62 326H311Q319 249 373.0 206.5Q427 164 522 164Q613 164 665.5 200.0Q718 236 718 292Q718 340 679.0 369.0Q640 398 574 412L394 449Q86 513 86 754Q86 900 202.0 989.5Q318 1079 511 1079Q703 1079 823.5 984.5Q944 890 948 727H711Q709 798 656.0 844.0Q603 890 517 890Q434 890 386.0 853.0Q338 816 338 762Q338 715 375.0 685.5Q412 656 478 641L668 602Q825 569 899.5 498.0Q974 427 974 311Q974 208 916.5 132.5Q859 57 758.0 16.0Q657 -25 526 -25Z" fill="#14201C"/>
  <path transform="translate(263.00 108.00) scale(0.03125 -0.03125)" d="M364 1490V0H112V1490Z" fill="#14201C"/>
  <path transform="translate(277.88 108.00) scale(0.03125 -0.03125)" d="M112 0V1056H364V0ZM238 1213Q173 1213 130.0 1254.5Q87 1296 87 1357Q87 1418 130.0 1459.0Q173 1500 238 1500Q302 1500 345.0 1459.0Q388 1418 388 1357Q388 1296 345.0 1254.5Q302 1213 238 1213Z" fill="#14201C"/>
  <path transform="translate(78.00 152.00) scale(0.01025 -0.01025)" d="M119 0V1056H321V885H325Q354 972 416.5 1020.5Q479 1069 580 1069Q604 1069 624.0 1067.0Q644 1065 657 1064V867Q645 870 614.0 873.5Q583 877 546 877Q457 877 393.5 815.0Q330 753 330 624V0Z" fill="#14201C"/>
  <path transform="translate(85.33 152.00) scale(0.01025 -0.01025)" d="M119 0V1056H330V0ZM224 1238Q168 1238 129.5 1275.5Q91 1313 91 1367Q91 1422 129.5 1459.5Q168 1497 224 1497Q280 1497 319.0 1459.5Q358 1422 358 1367Q358 1313 319.0 1275.5Q280 1238 224 1238Z" fill="#14201C"/>
  <path transform="translate(90.13 152.00) scale(0.01025 -0.01025)" d="M580 -432Q386 -432 263.0 -346.0Q140 -260 119 -105H330Q350 -182 417.0 -221.0Q484 -260 580 -260Q708 -260 780.0 -191.0Q852 -122 852 6V166H851Q796 74 712.5 30.0Q629 -14 525 -14Q387 -14 284.0 55.5Q181 125 124.0 247.5Q67 370 67 531Q67 692 124.5 815.0Q182 938 285.0 1007.5Q388 1077 524 1077Q627 1077 713.0 1033.0Q799 989 852 895H853V1056H1061V14Q1061 -146 996.0 -244.0Q931 -342 822.0 -387.0Q713 -432 580 -432ZM568 167Q703 167 783.5 266.5Q864 366 864 532Q864 698 783.5 797.5Q703 897 568 897Q440 897 360.5 803.5Q281 710 281 532Q281 354 360.5 260.5Q440 167 568 167Z" fill="#14201C"/>
  <path transform="translate(102.43 152.00) scale(0.01025 -0.01025)" d="M330 608V0H119V1490H330V904Q439 1077 645 1077Q754 1077 840.5 1029.5Q927 982 977.0 889.0Q1027 796 1027 658V0H816V632Q816 759 755.0 823.5Q694 888 585 888Q477 888 403.5 821.5Q330 755 330 608Z" fill="#14201C"/>
  <path transform="translate(114.38 152.00) scale(0.01025 -0.01025)" d="M628 1056V882H414V279Q414 220 438.0 197.0Q462 174 525 174H628V0H495Q202 0 202 252V882H16V1056H202V1344H414V1056Z" fill="#14201C"/>
  <path transform="translate(121.51 152.00) scale(0.01025 -0.01025)" d="M510 -25Q389 -25 292.0 14.0Q195 53 135.5 130.0Q76 207 69 321H277Q295 143 506 143Q606 143 664.5 184.0Q723 225 723 288Q723 342 681.0 374.5Q639 407 571 422L396 461Q93 527 93 763Q93 903 204.5 991.0Q316 1079 497 1079Q676 1079 791.5 986.5Q907 894 911 734H709Q708 811 651.0 861.5Q594 912 500 912Q410 912 357.0 870.0Q304 828 304 767Q304 713 344.5 680.0Q385 647 456 631L636 591Q790 557 863.0 486.0Q936 415 936 300Q936 199 880.5 126.5Q825 54 729.0 14.5Q633 -25 510 -25Z" fill="#14201C"/>
  <path transform="translate(137.20 152.00) scale(0.01025 -0.01025)" d="M119 0V1056H324V879Q373 977 457.0 1027.0Q541 1077 639 1077Q747 1077 828.5 1022.0Q910 967 943 882Q986 968 1073.5 1022.5Q1161 1077 1278 1077Q1376 1077 1456.0 1034.0Q1536 991 1583.0 906.5Q1630 822 1630 695V0H1418V677Q1418 790 1355.0 841.0Q1292 892 1206 892Q1100 892 1039.0 826.5Q978 761 978 660V0H770V691Q770 782 711.5 837.0Q653 892 563 892Q471 892 400.5 827.0Q330 762 330 637V0Z" fill="#14201C"/>
  <path transform="translate(155.34 152.00) scale(0.01025 -0.01025)" d="M441 -17Q283 -17 179.0 63.5Q75 144 75 302Q75 422 134.5 486.5Q194 551 289.5 579.0Q385 607 492 620Q591 632 649.0 640.0Q707 648 731.5 664.0Q756 680 756 719V728Q756 805 700.0 854.5Q644 904 543 904Q442 904 378.0 855.5Q314 807 308 734H101Q108 885 228.0 981.0Q348 1077 546 1077Q741 1077 853.0 981.0Q965 885 965 724V0H757V150H753Q720 86 648.5 34.5Q577 -17 441 -17ZM484 153Q624 153 690.5 225.5Q757 298 757 395V519Q736 502 662.0 488.5Q588 475 504 463Q417 450 351.0 414.0Q285 378 285 298Q285 230 338.5 191.5Q392 153 484 153Z" fill="#14201C"/>
  <path transform="translate(166.65 152.00) scale(0.01025 -0.01025)" d="M330 608V0H119V1056H326V897Q434 1077 645 1077Q754 1077 840.5 1029.5Q927 982 977.0 889.0Q1027 796 1027 658V0H816V632Q816 759 755.0 823.5Q694 888 585 888Q477 888 403.5 821.5Q330 755 330 608Z" fill="#14201C"/>
  <path transform="translate(178.60 152.00) scale(0.01025 -0.01025)" d="M441 -17Q283 -17 179.0 63.5Q75 144 75 302Q75 422 134.5 486.5Q194 551 289.5 579.0Q385 607 492 620Q591 632 649.0 640.0Q707 648 731.5 664.0Q756 680 756 719V728Q756 805 700.0 854.5Q644 904 543 904Q442 904 378.0 855.5Q314 807 308 734H101Q108 885 228.0 981.0Q348 1077 546 1077Q741 1077 853.0 981.0Q965 885 965 724V0H757V150H753Q720 86 648.5 34.5Q577 -17 441 -17ZM484 153Q624 153 690.5 225.5Q757 298 757 395V519Q736 502 662.0 488.5Q588 475 504 463Q417 450 351.0 414.0Q285 378 285 298Q285 230 338.5 191.5Q392 153 484 153Z" fill="#14201C"/>
  <path transform="translate(189.92 152.00) scale(0.01025 -0.01025)" d="M580 -432Q386 -432 263.0 -346.0Q140 -260 119 -105H330Q350 -182 417.0 -221.0Q484 -260 580 -260Q708 -260 780.0 -191.0Q852 -122 852 6V166H851Q796 74 712.5 30.0Q629 -14 525 -14Q387 -14 284.0 55.5Q181 125 124.0 247.5Q67 370 67 531Q67 692 124.5 815.0Q182 938 285.0 1007.5Q388 1077 524 1077Q627 1077 713.0 1033.0Q799 989 852 895H853V1056H1061V14Q1061 -146 996.0 -244.0Q931 -342 822.0 -387.0Q713 -432 580 -432ZM568 167Q703 167 783.5 266.5Q864 366 864 532Q864 698 783.5 797.5Q703 897 568 897Q440 897 360.5 803.5Q281 710 281 532Q281 354 360.5 260.5Q440 167 568 167Z" fill="#14201C"/>
  <path transform="translate(202.22 152.00) scale(0.01025 -0.01025)" d="M570 -24Q413 -24 300.5 47.0Q188 118 127.5 242.5Q67 367 67 526Q67 687 130.0 812.0Q193 937 304.0 1008.5Q415 1080 559 1080Q709 1080 819.5 1010.0Q930 940 991.0 815.5Q1052 691 1052 528V471H275Q281 328 357.5 240.0Q434 152 573 152Q677 152 744.0 199.0Q811 246 833 321H1036Q1017 219 951.5 141.0Q886 63 787.5 19.5Q689 -24 570 -24ZM277 631H846Q833 757 757.0 830.5Q681 904 561 904Q441 904 365.5 830.5Q290 757 277 631Z" fill="#14201C"/>
  <path transform="translate(213.85 152.00) scale(0.01025 -0.01025)" d="M119 0V1056H324V879Q373 977 457.0 1027.0Q541 1077 639 1077Q747 1077 828.5 1022.0Q910 967 943 882Q986 968 1073.5 1022.5Q1161 1077 1278 1077Q1376 1077 1456.0 1034.0Q1536 991 1583.0 906.5Q1630 822 1630 695V0H1418V677Q1418 790 1355.0 841.0Q1292 892 1206 892Q1100 892 1039.0 826.5Q978 761 978 660V0H770V691Q770 782 711.5 837.0Q653 892 563 892Q471 892 400.5 827.0Q330 762 330 637V0Z" fill="#14201C"/>
  <path transform="translate(231.98 152.00) scale(0.01025 -0.01025)" d="M570 -24Q413 -24 300.5 47.0Q188 118 127.5 242.5Q67 367 67 526Q67 687 130.0 812.0Q193 937 304.0 1008.5Q415 1080 559 1080Q709 1080 819.5 1010.0Q930 940 991.0 815.5Q1052 691 1052 528V471H275Q281 328 357.5 240.0Q434 152 573 152Q677 152 744.0 199.0Q811 246 833 321H1036Q1017 219 951.5 141.0Q886 63 787.5 19.5Q689 -24 570 -24ZM277 631H846Q833 757 757.0 830.5Q681 904 561 904Q441 904 365.5 830.5Q290 757 277 631Z" fill="#14201C"/>
  <path transform="translate(243.62 152.00) scale(0.01025 -0.01025)" d="M330 608V0H119V1056H326V897Q434 1077 645 1077Q754 1077 840.5 1029.5Q927 982 977.0 889.0Q1027 796 1027 658V0H816V632Q816 759 755.0 823.5Q694 888 585 888Q477 888 403.5 821.5Q330 755 330 608Z" fill="#14201C"/>
  <path transform="translate(255.57 152.00) scale(0.01025 -0.01025)" d="M628 1056V882H414V279Q414 220 438.0 197.0Q462 174 525 174H628V0H495Q202 0 202 252V882H16V1056H202V1344H414V1056Z" fill="#14201C"/>
  <path transform="translate(262.70 152.00) scale(0.01025 -0.01025)" d="M53 -291 136 220H352L204 -291Z" fill="#14201C"/>
  <path transform="translate(272.89 152.00) scale(0.01025 -0.01025)" d="M119 0V1056H321V885H325Q354 972 416.5 1020.5Q479 1069 580 1069Q604 1069 624.0 1067.0Q644 1065 657 1064V867Q645 870 614.0 873.5Q583 877 546 877Q457 877 393.5 815.0Q330 753 330 624V0Z" fill="#14201C"/>
  <path transform="translate(280.22 152.00) scale(0.01025 -0.01025)" d="M119 0V1056H330V0ZM224 1238Q168 1238 129.5 1275.5Q91 1313 91 1367Q91 1422 129.5 1459.5Q168 1497 224 1497Q280 1497 319.0 1459.5Q358 1422 358 1367Q358 1313 319.0 1275.5Q280 1238 224 1238Z" fill="#14201C"/>
  <path transform="translate(285.02 152.00) scale(0.01025 -0.01025)" d="M580 -432Q386 -432 263.0 -346.0Q140 -260 119 -105H330Q350 -182 417.0 -221.0Q484 -260 580 -260Q708 -260 780.0 -191.0Q852 -122 852 6V166H851Q796 74 712.5 30.0Q629 -14 525 -14Q387 -14 284.0 55.5Q181 125 124.0 247.5Q67 370 67 531Q67 692 124.5 815.0Q182 938 285.0 1007.5Q388 1077 524 1077Q627 1077 713.0 1033.0Q799 989 852 895H853V1056H1061V14Q1061 -146 996.0 -244.0Q931 -342 822.0 -387.0Q713 -432 580 -432ZM568 167Q703 167 783.5 266.5Q864 366 864 532Q864 698 783.5 797.5Q703 897 568 897Q440 897 360.5 803.5Q281 710 281 532Q281 354 360.5 260.5Q440 167 568 167Z" fill="#14201C"/>
  <path transform="translate(297.32 152.00) scale(0.01025 -0.01025)" d="M330 608V0H119V1490H330V904Q439 1077 645 1077Q754 1077 840.5 1029.5Q927 982 977.0 889.0Q1027 796 1027 658V0H816V632Q816 759 755.0 823.5Q694 888 585 888Q477 888 403.5 821.5Q330 755 330 608Z" fill="#14201C"/>
  <path transform="translate(309.27 152.00) scale(0.01025 -0.01025)" d="M628 1056V882H414V279Q414 220 438.0 197.0Q462 174 525 174H628V0H495Q202 0 202 252V882H16V1056H202V1344H414V1056Z" fill="#14201C"/>
  <path transform="translate(316.40 152.00) scale(0.01025 -0.01025)" d="M330 1490V0H119V1490Z" fill="#14201C"/>
  <path transform="translate(321.21 152.00) scale(0.01025 -0.01025)" d="M133 -418V-240H247Q297 -240 328.5 -211.5Q360 -183 384 -118L432 7L24 1056H250L461 477Q482 418 502.0 358.5Q522 299 541 240Q560 299 580.5 358.5Q601 418 622 477L830 1056H1053L573 -185Q484 -418 267 -418Z" fill="#14201C"/>
  <path transform="translate(337.66 152.00) scale(0.01025 -0.01025)" d="M573 -24Q422 -24 308.0 46.0Q194 116 130.5 240.0Q67 364 67 526Q67 690 130.5 814.5Q194 939 308.0 1009.5Q422 1080 573 1080Q724 1080 837.5 1009.5Q951 939 1014.5 814.5Q1078 690 1078 526Q1078 364 1014.5 240.0Q951 116 837.5 46.0Q724 -24 573 -24ZM573 158Q709 158 787.0 258.0Q865 358 865 526Q865 696 786.5 797.0Q708 898 573 898Q438 898 359.5 797.5Q281 697 281 526Q281 357 359.0 257.5Q437 158 573 158Z" fill="#14201C"/>
  <path transform="translate(349.61 152.00) scale(0.01025 -0.01025)" d="M119 0V1056H321V885H325Q354 972 416.5 1020.5Q479 1069 580 1069Q604 1069 624.0 1067.0Q644 1065 657 1064V867Q645 870 614.0 873.5Q583 877 546 877Q457 877 393.5 815.0Q330 753 330 624V0Z" fill="#14201C"/>
  <path transform="translate(356.93 152.00) scale(0.01025 -0.01025)" d="M525 -21Q387 -21 284.0 48.5Q181 118 124.0 241.5Q67 365 67 528Q67 691 124.5 814.5Q182 938 285.0 1007.5Q388 1077 524 1077Q627 1077 712.0 1034.0Q797 991 848 903H850V1490H1061V0H854V161H852Q799 69 713.5 24.0Q628 -21 525 -21ZM568 161Q703 161 783.5 261.5Q864 362 864 528Q864 695 783.5 795.5Q703 896 568 896Q440 896 360.5 801.5Q281 707 281 528Q281 349 360.5 255.0Q440 161 568 161Z" fill="#14201C"/>
  <path transform="translate(369.23 152.00) scale(0.01025 -0.01025)" d="M570 -24Q413 -24 300.5 47.0Q188 118 127.5 242.5Q67 367 67 526Q67 687 130.0 812.0Q193 937 304.0 1008.5Q415 1080 559 1080Q709 1080 819.5 1010.0Q930 940 991.0 815.5Q1052 691 1052 528V471H275Q281 328 357.5 240.0Q434 152 573 152Q677 152 744.0 199.0Q811 246 833 321H1036Q1017 219 951.5 141.0Q886 63 787.5 19.5Q689 -24 570 -24ZM277 631H846Q833 757 757.0 830.5Q681 904 561 904Q441 904 365.5 830.5Q290 757 277 631Z" fill="#14201C"/>
  <path transform="translate(380.87 152.00) scale(0.01025 -0.01025)" d="M119 0V1056H321V885H325Q354 972 416.5 1020.5Q479 1069 580 1069Q604 1069 624.0 1067.0Q644 1065 657 1064V867Q645 870 614.0 873.5Q583 877 546 877Q457 877 393.5 815.0Q330 753 330 624V0Z" fill="#14201C"/>
  <path transform="translate(388.19 152.00) scale(0.01025 -0.01025)" d="M570 -24Q413 -24 300.5 47.0Q188 118 127.5 242.5Q67 367 67 526Q67 687 130.0 812.0Q193 937 304.0 1008.5Q415 1080 559 1080Q709 1080 819.5 1010.0Q930 940 991.0 815.5Q1052 691 1052 528V471H275Q281 328 357.5 240.0Q434 152 573 152Q677 152 744.0 199.0Q811 246 833 321H1036Q1017 219 951.5 141.0Q886 63 787.5 19.5Q689 -24 570 -24ZM277 631H846Q833 757 757.0 830.5Q681 904 561 904Q441 904 365.5 830.5Q290 757 277 631Z" fill="#14201C"/>
  <path transform="translate(399.83 152.00) scale(0.01025 -0.01025)" d="M525 -21Q387 -21 284.0 48.5Q181 118 124.0 241.5Q67 365 67 528Q67 691 124.5 814.5Q182 938 285.0 1007.5Q388 1077 524 1077Q627 1077 712.0 1034.0Q797 991 848 903H850V1490H1061V0H854V161H852Q799 69 713.5 24.0Q628 -21 525 -21ZM568 161Q703 161 783.5 261.5Q864 362 864 528Q864 695 783.5 795.5Q703 896 568 896Q440 896 360.5 801.5Q281 707 281 528Q281 349 360.5 255.0Q440 161 568 161Z" fill="#14201C"/>
</svg>
